REM DIRINDEX 1\2,1\3,1\4,1\5
REM DIRNAME "folder01","folder02","folder03","folder04","folder05"
TITLE ""
FILE "1Q_t_1601-1609.mp3" MP3
  TRACK 01 AUDIO
    TITLE "0:"
    INDEX 01 00:00:00
  TRACK 02 AUDIO
    TITLE "2:cjc172_5790"
    INDEX 01 00:00:08
  TRACK 03 AUDIO
    TITLE "0:"
    INDEX 01 00:01:70
  TRACK 04 AUDIO
    TITLE "2:cjc172_5791"
    INDEX 01 00:02:43
  TRACK 05 AUDIO
    TITLE "0:"
    INDEX 01 00:03:50
  TRACK 06 AUDIO
    TITLE "3:cjc172_5792"
    INDEX 01 00:04:18
  TRACK 07 AUDIO
    TITLE "0:"
    INDEX 01 00:05:39
  TRACK 08 AUDIO
    TITLE "4:cjc172_5793"
    INDEX 01 00:05:51
  TRACK 09 AUDIO
    TITLE "0:"
    INDEX 01 00:07:10
  TRACK 10 AUDIO
    TITLE "5:cjc172_5794"
    INDEX 01 00:07:16
  TRACK 11 AUDIO
    TITLE "0:"
    INDEX 01 00:12:08
  TRACK 12 AUDIO
    TITLE "3:cjc172_5795"
    INDEX 01 00:12:53
  TRACK 13 AUDIO
    TITLE "0:"
    INDEX 01 00:13:70
  TRACK 14 AUDIO
    TITLE "4:cjc172_5796"
    INDEX 01 00:14:07
  TRACK 15 AUDIO
    TITLE "0:"
    INDEX 01 00:15:49
  TRACK 16 AUDIO
    TITLE "5:cjc172_5797"
    INDEX 01 00:15:55
  TRACK 17 AUDIO
    TITLE "0:"
    INDEX 01 00:21:07
  TRACK 18 AUDIO
    TITLE "3:cjc172_5798"
    INDEX 01 00:21:52
  TRACK 19 AUDIO
    TITLE "0:"
    INDEX 01 00:22:67
  TRACK 20 AUDIO
    TITLE "4:cjc172_5799"
    INDEX 01 00:23:00
  TRACK 21 AUDIO
    TITLE "0:"
    INDEX 01 00:24:48
  TRACK 22 AUDIO
    TITLE "5:cjc172_5800"
    INDEX 01 00:24:54
  TRACK 23 AUDIO
    TITLE "0:"
    INDEX 01 00:28:65
  TRACK 24 AUDIO
    TITLE "3:cjc172_5801"
    INDEX 01 00:29:35
  TRACK 25 AUDIO
    TITLE "0:"
    INDEX 01 00:30:31
  TRACK 26 AUDIO
    TITLE "4:cjc172_5802"
    INDEX 01 00:30:41
  TRACK 27 AUDIO
    TITLE "0:"
    INDEX 01 00:33:31
  TRACK 28 AUDIO
    TITLE "5:cjc172_5803"
    INDEX 01 00:33:37
  TRACK 29 AUDIO
    TITLE "0:"
    INDEX 01 00:37:49
  TRACK 30 AUDIO
    TITLE "3:cjc172_5804"
    INDEX 01 00:38:19
  TRACK 31 AUDIO
    TITLE "0:"
    INDEX 01 00:39:38
  TRACK 32 AUDIO
    TITLE "4:cjc172_5805"
    INDEX 01 00:39:46
  TRACK 33 AUDIO
    TITLE "0:"
    INDEX 01 00:40:73
  TRACK 34 AUDIO
    TITLE "5:cjc172_5806"
    INDEX 01 00:41:03
  TRACK 35 AUDIO
    TITLE "0:"
    INDEX 01 00:45:01
  TRACK 36 AUDIO
    TITLE "3:cjc172_5807"
    INDEX 01 00:45:46
  TRACK 37 AUDIO
    TITLE "0:"
    INDEX 01 00:46:63
  TRACK 38 AUDIO
    TITLE "4:cjc172_5808"
    INDEX 01 00:46:73
  TRACK 39 AUDIO
    TITLE "0:"
    INDEX 01 00:50:02
  TRACK 40 AUDIO
    TITLE "5:cjc172_5809"
    INDEX 01 00:50:08
  TRACK 41 AUDIO
    TITLE "0:"
    INDEX 01 00:55:09
  TRACK 42 AUDIO
    TITLE "3:cjc172_5810"
    INDEX 01 00:55:54
  TRACK 43 AUDIO
    TITLE "0:"
    INDEX 01 00:56:73
  TRACK 44 AUDIO
    TITLE "4:cjc172_5811"
    INDEX 01 00:57:06
  TRACK 45 AUDIO
    TITLE "0:"
    INDEX 01 00:59:13
  TRACK 46 AUDIO
    TITLE "5:cjc172_5812"
    INDEX 01 00:59:19
  TRACK 47 AUDIO
    TITLE "0:"
    INDEX 01 01:02:70
  TRACK 48 AUDIO
    TITLE "3:cjc172_5813"
    INDEX 01 01:03:38
  TRACK 49 AUDIO
    TITLE "0:"
    INDEX 01 01:04:55
  TRACK 50 AUDIO
    TITLE "4:cjc172_5814"
    INDEX 01 01:04:63
  TRACK 51 AUDIO
    TITLE "0:"
    INDEX 01 01:06:66
  TRACK 52 AUDIO
    TITLE "5:cjc172_5815"
    INDEX 01 01:06:72
  TRACK 53 AUDIO
    TITLE "0:"
    INDEX 01 01:11:69
  TRACK 54 AUDIO
    TITLE "3:cjc172_5816"
    INDEX 01 01:12:43
  TRACK 55 AUDIO
    TITLE "0:"
    INDEX 01 01:13:54
  TRACK 56 AUDIO
    TITLE "4:cjc172_5817"
    INDEX 01 01:13:68
  TRACK 57 AUDIO
    TITLE "0:"
    INDEX 01 01:17:13
  TRACK 58 AUDIO
    TITLE "5:cjc172_5818"
    INDEX 01 01:17:21
  TRACK 59 AUDIO
    TITLE "0:"
    INDEX 01 01:21:22
